<?xml version="1.0" encoding="utf-8"?>
<!-- Generator: Adobe Illustrator 27.6.1, SVG Export Plug-In . SVG Version: 6.00 Build 0)  -->
<svg version="1.1" id="Layer_1" xmlns="http://www.w3.org/2000/svg" xmlns:xlink="http://www.w3.org/1999/xlink" x="0px" y="0px"
	 viewBox="0 0 1160 415" style="enable-background:new 0 0 1160 415;" xml:space="preserve">
<style type="text/css">
	.st0{fill:#221533;}
	.st1{fill:#81D0B5;}
</style>
<g>
	<path class="st0" d="M100.1,43.1L48,185.7v36.1h30.2v-32.6l5.7-15.5h69.6l5.7,15.5v32.6h30.2v-36.4l-52-142.3
		C137.4,43.1,100.1,43.1,100.1,43.1z M145.7,147.5h-54l26.9-73.4L145.7,147.5z"/>
	<path class="st0" d="M390.1,65.1l-59.5,76.3l-59.8-76.3v-22h-29.7v178.7h29.7v-93.5c0-5.9-0.3-14-0.6-21.1l45.8,60.1v25.3h29.2
		v-25.3l45.6-59.9c-0.4,6.9-0.7,14.8-0.7,20.9v93.5h29.7V43.1h-29.7V65.1z"/>
	<polygon class="st0" points="511.3,119.3 511.3,69.3 572.1,69.3 572.1,99.6 601.8,99.6 601.8,61.7 583,43.1 500.4,43.1 481.8,61.7 
		481.8,126.9 500.4,145.4 573.1,145.4 573.1,195.6 510.5,195.6 510.5,168.7 480.8,168.7 480.8,203 499.7,221.8 583.7,221.8 
		602.6,203 602.6,138.1 583.7,119.3 	"/>
	<polygon class="st0" points="693.6,144.7 759.8,144.7 759.8,119.5 693.6,119.5 693.6,70.8 773.7,70.8 773.7,43.1 663.3,43.1 
		663.3,221.8 775,221.8 775,193.9 693.6,193.9 	"/>
	<polygon class="st0" points="811.3,70.8 860.2,70.8 860.2,221.8 890.4,221.8 890.4,70.8 939.3,70.8 939.3,43.1 811.3,43.1 	"/>
	<polygon class="st0" points="1085.9,119.3 1013.4,119.3 1013.4,69.3 1074.2,69.3 1074.2,99.6 1103.9,99.6 1103.9,61.7 1085.1,43.1 
		1002.5,43.1 984,61.7 984,126.9 1002.5,145.4 1075.2,145.4 1075.2,195.6 1012.7,195.6 1012.7,168.7 983,168.7 983,203 
		1001.8,221.8 1085.9,221.8 1104.7,203 1104.7,138.1 	"/>
</g>
<g>
	<path class="st1" d="M103.7,338.3L53.8,299v-16l9-9h41.6l8.8,9v17.5h-10.4v-17.2H64.5v10.6l49.9,39.3v16l-8.8,9H62l-9-9v-14.9h10.4
		v14.5h40.3V338.3z"/>
	<path class="st1" d="M301.2,390V274h10v8.4l8.2-8.4h33.7l9,9v66.2l-9,9H312V390H301.2z M321,284.3l-9,8.1v55.8h39.3v-63.8H321
		V284.3z"/>
	<path class="st1" d="M608.9,358.2h-9.5v-8.5l-8.5,8.5h-33.7l-9-9v-28.4l9-9h41.1v-28h-39.2v13.7h-10.4V283l9-9H600l8.8,9v75.2
		H608.9z M558.8,320.1v28.6h30.5l9-8.1v-20.5H558.8z"/>
	<path class="st1" d="M845.8,329.4h10.6v19.8l-8.8,9h-41.9l-9-9V283l9-9h41.9l8.8,9v19.8h-10.6v-18.6h-38.4v64h38.4V329.4z"/>
	<path class="st1" d="M1092,330.4h10.6v18.8l-8.8,9h-42.3l-9-9V283l9-9h42.3l8.8,9v35.4h-49.5v30.2h38.9V330.4z M1053.1,283.6v26.5
		h38.9v-26.5H1053.1z"/>
</g>
<rect x="183.5" y="300.7" class="st0" width="36.2" height="36.2"/>
<rect x="434.5" y="300.7" class="st0" width="36.2" height="36.2"/>
<rect x="685.5" y="300.7" class="st0" width="36.2" height="36.2"/>
<rect x="936.6" y="300.7" class="st0" width="36.2" height="36.2"/>
</svg>
